Patient4_TMGait_0pt6_01_left_13_EMG.mot
version=1
nRows=20
nColumns=33
inDegrees=no
endheader
time	1LAddLong	2LGlutMax	3LGlutMed	4LIliopsoas	5LSemiMemb	6LBicFemLong	7LRecFem	8LVastMed	9LVastLat	10LGasMed	11LTibAnt	12lTibPost	13LPeroneusLong	14LSol	15LExtDigLong	16LFlexDigLong	17RAddLong	18RGlutMax	19RGlutMed	20RIliopsoas	21RSemiMemb	22RBicFemLong	23RRecFem	24RVastMed	25RVastLat	26RGasMed	27RTibAnt	28RTibPost	29RPeroneusLong	30RSol	31RExtDigLong	32RFlexDigLong
16.635	0.006104	-0.15549	-0.34546	-0.018158	-0.018005	-0.024261	-0.084686	-0.00061	0.11139	0.018311	0.034637	0.002747	0.33127	-0.094452	0.14633	0.006561	0.098724	-0.040894	0.3624	-0.12131	0.10071	-0.10559	0.54993	-0.11231	-0.5603	-0.005188	0.53436	0.00473	0.29159	0.011597	0.00351	0.001068
16.636	0.008087	-0.13779	-0.35111	-0.020599	-0.002594	-0.10361	-0.10361	0.007629	0.11169	-0.007629	-0.018158	0.00061	-0.09491	-0.077209	0.17838	-0.006256	0.010681	-0.070953	0.43457	-0.15518	0.22247	0.0354	0.61768	-0.15808	-0.42435	-0.00351	0.72083	-0.006714	0.39993	-0.086212	-0.000916	0.000305
16.637	0.014648	-0.16647	-0.35706	-0.015564	0.026703	-0.19043	-0.084381	-0.006256	0.0914	0.005493	-0.024719	0.006256	-0.15717	-0.06012	0.1059	-0.014801	0.073395	-0.059814	0.40085	-0.19333	0.58334	-0.10895	0.58472	-0.14175	-0.28488	-0.001678	0.27985	-0.002747	-0.36911	-0.13031	0.002594	-0.000153
16.638	0.005188	-0.19852	-0.40482	-0.0383	0.026855	-0.18616	-0.09903	-0.004425	0.071869	-0.01297	-0.027771	0.012207	-0.10574	-0.008545	0.033264	0.010681	0.054321	-0.1178	0.37735	-0.12253	0.8429	-0.054626	0.38544	0.011749	-0.13809	0.002747	-0.38345	-0.011292	-0.91095	-0.044861	-0.002747	0.002136
16.639	0.00946	-0.19318	-0.38116	-0.037231	0.015564	-0.12085	-0.092163	-0.011139	0.057373	-0.034485	0.16495	0.008698	-0.30273	0.045166	-0.027161	0.005341	-0.047913	-0.099182	0.457	0.051575	0.90988	0.029907	0.46097	0.54016	-0.033875	0.001526	-0.63049	-0.007477	0.005341	0.011292	0.001221	-0.004578
16.64	0.02182	-0.1445	-0.39764	-0.007477	-0.02121	-0.023651	-0.12238	-0.000458	0.046997	-0.054016	0.29617	0.00473	-0.16129	-0.041504	0.12207	-0.005646	-0.088806	-0.060577	0.42114	0.22217	0.87189	0.35111	0.45853	0.5246	0.46234	-0.001526	-0.41428	-0.008392	1.2071	0.05249	-0.000305	-0.00824
16.641	0.015106	-0.14603	-0.44357	-0.016785	-0.016937	0.019836	-0.094299	0.001678	0.04837	-0.034332	0.36713	0.010529	-0.15671	-0.071869	0.29373	0.012207	-0.20844	-0.10376	0.20111	0.25833	0.90866	0.90897	0.513	0.5571	0.82092	-0.003204	-0.17258	-0.006714	1.2344	0.090637	0.001678	-0.010071
16.642	0.00946	-0.15945	-0.47073	-0.0177	-0.034943	0.042877	-0.089417	0.005188	0.023804	-0.030212	0.22842	0.007172	-0.056458	0.004425	0.32486	0.007019	-0.24612	-0.094604	0.14542	0.16846	0.97534	1.026	0.44586	0.30228	0.63675	0.020599	-0.16388	-0.005035	0.71075	0.052948	-0.003052	-0.000458
16.643	0.00946	-0.15762	-0.40253	-0.026703	-0.018005	-0.005493	-0.094299	0.003052	0.008698	-0.035553	-0.063477	0	-0.080414	0.1622	0.59692	0.006104	-0.22675	0.006409	0.22614	0.077209	0.65338	0.78903	0.090332	0.025482	0.44876	0.016632	-0.057678	-0.001984	-0.88318	-0.074921	-0.001678	-0.006714
16.644	0.00824	-0.17319	-0.40329	-0.029602	-0.014496	-0.027313	-0.091553	0.003052	-0.004883	-0.078735	-0.18326	0.00473	0.036469	0.15243	0.73273	0.008392	-0.26184	0.004272	0.39017	0.00946	0.24429	0.58182	-0.11856	-0.15991	0.10605	0.003357	0.18768	-0.004883	-1.7892	-0.023651	-0.002441	-0.012512
16.645	0.006409	-0.1622	-0.42404	-0.02533	-0.025024	0.014038	-0.10666	0	-0.020294	-0.058289	-0.20371	0.003357	0.052643	0.097198	-0.26916	0.001678	-0.18112	-0.0737	0.58609	-0.03418	0.60104	0.31021	-0.28076	-0.19424	0.29282	-0.004272	0.15152	-0.00473	-1.5996	0.02243	-0.001068	-0.015717
16.646	0.007935	-0.13397	-0.40359	0.023651	-0.014038	-0.007629	-0.090332	-0.006104	-0.033722	-0.0383	-0.15747	-0.000153	-0.027008	0.025635	-0.76858	-0.007019	-0.13947	-0.091095	0.43976	-0.03891	0.87402	0.25482	-0.34531	-0.33127	0.59204	0.000763	0.10529	-0.006104	0.22629	0.038452	0.001678	-0.008545
16.647	0.007324	-0.12741	-0.3595	0.066833	0.016937	-0.079498	-0.11169	0.006256	-0.033569	-0.02533	-0.12238	0.00473	-0.090485	0.012207	-0.88257	-0.004578	-0.11368	-0.28351	0.28793	-0.055237	0.68024	0.27527	-0.15198	-0.031891	-0.2301	0.00061	0.069885	0.001526	0.98618	-0.022583	0.002747	-0.020752
16.648	-0.001373	-0.14175	-0.38895	0.13886	0.047455	-0.060272	-0.096741	-0.002899	-0.046997	0.090942	-0.042572	0.006409	-0.019836	-0.010986	-0.68848	-0.001373	-0.066528	-0.26627	0.5983	-0.058594	0.61966	0.22812	-0.016174	-0.34988	-0.77011	0.002441	0.096283	-0.003052	0.23727	-0.08667	-0.004578	-0.018616
16.649	0.000153	-0.097656	-0.33752	0.14282	0.011749	-0.005646	-0.10147	0.001831	-0.055847	0.22705	0.016785	-0.002441	0.018311	-0.024567	-0.30563	-0.00885	0.001373	-0.17578	0.88943	-0.020142	0.6192	0.24735	-0.051117	-0.59036	-0.54565	0.002441	0.1149	-0.005493	0.25742	0.049744	0.000458	-0.010376
16.65	-0.009003	-0.090942	-0.3157	0.11063	-0.02533	0.007019	-0.10666	0.000763	-0.070496	0.15823	0.042419	-0.000763	-0.026703	0.008545	-0.090179	-0.002441	0.085449	-0.13275	0.54169	-0.018768	0.63416	0.086975	0.16052	-0.48477	-0.24704	0.007324	0.088959	-0.005188	0.30548	0.10986	0.002441	0.007019
16.651	-0.020447	-0.070496	-0.29282	0.054016	-0.008698	-0.078583	-0.070648	0.000305	-0.10437	0.036621	-0.010071	-0.001526	-0.011749	-0.080261	0.010529	0.002899	0.18433	-0.075836	0.18723	0.003815	0.36652	-0.19501	0.43045	-0.50384	-0.22675	0.010986	0.075684	-0.005035	0.31189	0.063629	0.001831	0.001526
16.652	-0.013733	-0.013428	-0.26993	0.033112	0.015869	-0.11841	-0.058746	0.005951	-0.093384	-0.24384	-0.090637	-0.007782	0.073853	-0.19455	0.094604	-0.003357	0.14557	0.021667	0.19562	-0.019836	-0.13641	-0.298	0.11917	-0.40924	-0.46799	0.001984	0.065613	-0.004578	0.17441	0.052185	-0.003815	0.002899
16.653	-0.007935	0.007477	-0.23438	0.005035	-0.000916	0.048218	-0.050049	0.01236	-0.10361	-0.18234	-0.092316	-0.020599	0.008087	-0.1767	0.27969	0.007324	0.098877	-0.054474	0.12451	-0.001068	-0.44205	-0.19684	-0.41718	-0.41214	-0.5867	-0.001526	0.073395	-0.004272	0.21011	0.00885	-0.001831	0.006409
16.654	-0.010376	0.011597	-0.20783	-0.022888	0.012207	0.12558	-0.013275	0.004883	-0.11322	0.080872	-0.048523	-0.004578	-0.084229	-0.12253	0.2626	0.014496	0.029144	-0.031281	0.16525	0.018768	-0.40649	0.20477	-0.57159	-0.075684	-0.42282	0.013428	0.023193	-0.004272	0.58929	-0.034637	0.000916	0.008698
